<svg width="17" height="24" viewBox="0 0 17 24" fill="none" xmlns="http://www.w3.org/2000/svg">
<path fill-rule="evenodd" clip-rule="evenodd" d="M5.04729 23.7964V19.5415H11.3199V23.7964H16.047V0.878052H0.319427V23.7964H5.04729ZM11.3199 2.98345H13.9655V5.65845H11.3199V2.98345ZM13.9655 6.87218H11.3199V9.5479H13.9655V6.87218ZM11.3199 10.7616H13.9655V13.4359H11.3199V10.7616ZM13.9655 14.6496H11.3199V17.3261H13.9655V14.6496ZM6.86113 2.98345H9.50744V5.65845H6.86113V2.98345ZM9.50744 6.87218H6.86113V9.5479H9.50744V6.87218ZM6.86113 10.7616H9.50744V13.4359H6.86113V10.7616ZM9.50744 14.6496H6.86113V17.3261H9.50744V14.6496ZM2.40241 2.98345H5.04801V5.65845H2.40241V2.98345ZM5.04801 6.87218H2.40241V9.5479H5.04801V6.87218ZM2.40241 10.7616H5.04801V13.4359H2.40241V10.7616ZM5.04801 14.6496H2.40241V17.3261H5.04801V14.6496Z" fill="#58BEBF"/>
</svg>
